G04 #@! TF.GenerationSoftware,KiCad,Pcbnew,5.1.5+dfsg1-2build2*
G04 #@! TF.CreationDate,2021-02-10T08:24:25+02:00*
G04 #@! TF.ProjectId,MOD-BME280_RevB,4d4f442d-424d-4453-9238-305f52657642,rev?*
G04 #@! TF.SameCoordinates,Original*
G04 #@! TF.FileFunction,Paste,Top*
G04 #@! TF.FilePolarity,Positive*
%FSLAX46Y46*%
G04 Gerber Fmt 4.6, Leading zero omitted, Abs format (unit mm)*
G04 Created by KiCad (PCBNEW 5.1.5+dfsg1-2build2) date 2021-02-10 08:24:25*
%MOMM*%
%LPD*%
G04 APERTURE LIST*
%ADD10C,0.600000*%
%ADD11R,0.500000X0.325000*%
%ADD12R,1.016000X1.016000*%
G04 APERTURE END LIST*
D10*
G36*
X109640000Y-71373222D02*
G01*
X109640000Y-67563222D01*
X111340000Y-67563222D01*
X111340000Y-71373222D01*
X109640000Y-71373222D01*
G37*
G36*
X107100000Y-71373222D02*
G01*
X107100000Y-67563222D01*
X108800000Y-67563222D01*
X108800000Y-71373222D01*
X107100000Y-71373222D01*
G37*
G36*
X104560000Y-71373222D02*
G01*
X104560000Y-67563222D01*
X106260000Y-67563222D01*
X106260000Y-71373222D01*
X104560000Y-71373222D01*
G37*
G36*
X102020000Y-71373222D02*
G01*
X102020000Y-67563222D01*
X103720000Y-67563222D01*
X103720000Y-71373222D01*
X102020000Y-71373222D01*
G37*
G36*
X99480000Y-71373222D02*
G01*
X99480000Y-67563222D01*
X101180000Y-67563222D01*
X101180000Y-71373222D01*
X99480000Y-71373222D01*
G37*
G36*
X99480000Y-77723222D02*
G01*
X99480000Y-73913222D01*
X101180000Y-73913222D01*
X101180000Y-77723222D01*
X99480000Y-77723222D01*
G37*
G36*
X102020000Y-77723222D02*
G01*
X102020000Y-73913222D01*
X103720000Y-73913222D01*
X103720000Y-77723222D01*
X102020000Y-77723222D01*
G37*
G36*
X104560000Y-77723222D02*
G01*
X104560000Y-73913222D01*
X106260000Y-73913222D01*
X106260000Y-77723222D01*
X104560000Y-77723222D01*
G37*
G36*
X107100000Y-77723222D02*
G01*
X107100000Y-73913222D01*
X108800000Y-73913222D01*
X108800000Y-77723222D01*
X107100000Y-77723222D01*
G37*
G36*
X109640000Y-77723222D02*
G01*
X109640000Y-73913222D01*
X111340000Y-73913222D01*
X111340000Y-77723222D01*
X109640000Y-77723222D01*
G37*
D11*
X104639000Y-83220200D03*
X104639000Y-82570200D03*
X104639000Y-81920200D03*
X104639000Y-81270200D03*
X106689000Y-81270200D03*
X106689000Y-81920200D03*
X106689000Y-82570200D03*
X106689000Y-83220200D03*
D12*
X109207300Y-82715100D03*
X110985300Y-82715100D03*
X99783900Y-85013800D03*
X101561900Y-85013800D03*
X101574600Y-83172300D03*
X99796600Y-83172300D03*
X109207300Y-80899000D03*
X110985300Y-80899000D03*
M02*
