G04 #@! TF.GenerationSoftware,KiCad,Pcbnew,5.1.5+dfsg1-2build2*
G04 #@! TF.CreationDate,2021-02-10T08:24:25+02:00*
G04 #@! TF.ProjectId,MOD-BME280_RevB,4d4f442d-424d-4453-9238-305f52657642,rev?*
G04 #@! TF.SameCoordinates,Original*
G04 #@! TF.FileFunction,Legend,Top*
G04 #@! TF.FilePolarity,Positive*
%FSLAX46Y46*%
G04 Gerber Fmt 4.6, Leading zero omitted, Abs format (unit mm)*
G04 Created by KiCad (PCBNEW 5.1.5+dfsg1-2build2) date 2021-02-10 08:24:25*
%MOMM*%
%LPD*%
G04 APERTURE LIST*
%ADD10C,0.150000*%
%ADD11C,0.508000*%
%ADD12C,0.100000*%
%ADD13C,0.254000*%
%ADD14C,0.200000*%
G04 APERTURE END LIST*
D10*
X114052404Y-80543309D02*
X114052404Y-80467119D01*
X114090500Y-80390928D01*
X114128595Y-80352833D01*
X114204785Y-80314738D01*
X114357166Y-80276642D01*
X114547642Y-80276642D01*
X114700023Y-80314738D01*
X114776214Y-80352833D01*
X114814309Y-80390928D01*
X114852404Y-80467119D01*
X114852404Y-80543309D01*
X114814309Y-80619500D01*
X114776214Y-80657595D01*
X114700023Y-80695690D01*
X114547642Y-80733785D01*
X114357166Y-80733785D01*
X114204785Y-80695690D01*
X114128595Y-80657595D01*
X114090500Y-80619500D01*
X114052404Y-80543309D01*
X114852404Y-78905214D02*
X114852404Y-79362357D01*
X114852404Y-79133785D02*
X114052404Y-79133785D01*
X114166690Y-79209976D01*
X114242880Y-79286166D01*
X114280976Y-79362357D01*
D11*
X113030000Y-67563222D02*
X113665000Y-68198222D01*
X112712500Y-67563222D02*
X112712500Y-68198222D01*
X112395000Y-67563222D02*
X112395000Y-68198222D01*
X113030000Y-67563222D02*
X113030000Y-68198222D01*
X113030000Y-67563222D02*
X112395000Y-67563222D01*
X95250000Y-68198222D02*
X98425000Y-68198222D01*
X115570000Y-68198222D02*
X112395000Y-68198222D01*
X112395000Y-77088222D02*
X115570000Y-77088222D01*
X95250000Y-77088222D02*
X98425000Y-77088222D01*
X95250000Y-68198222D02*
X95250000Y-77088222D01*
X115570000Y-68198222D02*
X115570000Y-77088222D01*
D12*
X104140000Y-83515200D02*
X104140000Y-83261200D01*
X104140000Y-83261200D02*
X103886000Y-83261200D01*
X103886000Y-83261200D02*
X103886000Y-83515200D01*
X103886000Y-83515200D02*
X104140000Y-83515200D01*
X107061000Y-83642200D02*
X104267000Y-83642200D01*
X104267000Y-83642200D02*
X104267000Y-80848200D01*
X104267000Y-80848200D02*
X107061000Y-80848200D01*
X107061000Y-80848200D02*
X107061000Y-83642200D01*
D13*
X100735237Y-79974440D02*
G75*
G03X100735237Y-79974440I-1802237J0D01*
G01*
D14*
X97772220Y-78811120D02*
X100205540Y-81231740D01*
D13*
X109588300Y-83477100D02*
X110604300Y-83477100D01*
X109588300Y-81953100D02*
X110604300Y-81953100D01*
X100164900Y-85775800D02*
X101180900Y-85775800D01*
X100164900Y-84251800D02*
X101180900Y-84251800D01*
X100177600Y-82410300D02*
X101193600Y-82410300D01*
X100177600Y-83934300D02*
X101193600Y-83934300D01*
X109588300Y-81661000D02*
X110604300Y-81661000D01*
X109588300Y-80137000D02*
X110604300Y-80137000D01*
X112242600Y-81267300D02*
X112242600Y-78219300D01*
X112496600Y-81521300D02*
X113512600Y-81521300D01*
X112496600Y-77965300D02*
X113512600Y-77965300D01*
X113766600Y-78219300D02*
X113766600Y-81267300D01*
X113512600Y-81521300D02*
G75*
G03X113766600Y-81267300I0J254000D01*
G01*
X113766600Y-78219300D02*
G75*
G03X113512600Y-77965300I-254000J0D01*
G01*
X112496600Y-77965300D02*
G75*
G03X112242600Y-78219300I0J-254000D01*
G01*
X112242600Y-81267300D02*
G75*
G03X112496600Y-81521300I254000J0D01*
G01*
D10*
X104671904Y-72842380D02*
X104671904Y-71842380D01*
X105052857Y-71842380D01*
X105148095Y-71890000D01*
X105195714Y-71937619D01*
X105243333Y-72032857D01*
X105243333Y-72175714D01*
X105195714Y-72270952D01*
X105148095Y-72318571D01*
X105052857Y-72366190D01*
X104671904Y-72366190D01*
X106195714Y-72842380D02*
X105624285Y-72842380D01*
X105910000Y-72842380D02*
X105910000Y-71842380D01*
X105814761Y-71985238D01*
X105719523Y-72080476D01*
X105624285Y-72128095D01*
D13*
X98183095Y-75757745D02*
X97457380Y-75757745D01*
X97820238Y-75757745D02*
X97820238Y-74487745D01*
X97699285Y-74669174D01*
X97578333Y-74790126D01*
X97457380Y-74850602D01*
X98969285Y-74487745D02*
X99090238Y-74487745D01*
X99211190Y-74548222D01*
X99271666Y-74608698D01*
X99332142Y-74729650D01*
X99392619Y-74971555D01*
X99392619Y-75273936D01*
X99332142Y-75515841D01*
X99271666Y-75636793D01*
X99211190Y-75697269D01*
X99090238Y-75757745D01*
X98969285Y-75757745D01*
X98848333Y-75697269D01*
X98787857Y-75636793D01*
X98727380Y-75515841D01*
X98666904Y-75273936D01*
X98666904Y-74971555D01*
X98727380Y-74729650D01*
X98787857Y-74608698D01*
X98848333Y-74548222D01*
X98969285Y-74487745D01*
X98183095Y-70042745D02*
X98425000Y-70042745D01*
X98545952Y-69982269D01*
X98606428Y-69921793D01*
X98727380Y-69740364D01*
X98787857Y-69498460D01*
X98787857Y-69014650D01*
X98727380Y-68893698D01*
X98666904Y-68833222D01*
X98545952Y-68772745D01*
X98304047Y-68772745D01*
X98183095Y-68833222D01*
X98122619Y-68893698D01*
X98062142Y-69014650D01*
X98062142Y-69317031D01*
X98122619Y-69437983D01*
X98183095Y-69498460D01*
X98304047Y-69558936D01*
X98545952Y-69558936D01*
X98666904Y-69498460D01*
X98727380Y-69437983D01*
X98787857Y-69317031D01*
X112032142Y-74608698D02*
X112092619Y-74548222D01*
X112213571Y-74487745D01*
X112515952Y-74487745D01*
X112636904Y-74548222D01*
X112697380Y-74608698D01*
X112757857Y-74729650D01*
X112757857Y-74850602D01*
X112697380Y-75032031D01*
X111971666Y-75757745D01*
X112757857Y-75757745D01*
D10*
X113061714Y-70111102D02*
X112490285Y-70111102D01*
X112776000Y-70111102D02*
X112776000Y-69111102D01*
X112680761Y-69253960D01*
X112585523Y-69349198D01*
X112490285Y-69396817D01*
X104949195Y-79086580D02*
X104949195Y-79896104D01*
X104996814Y-79991342D01*
X105044433Y-80038961D01*
X105139671Y-80086580D01*
X105330147Y-80086580D01*
X105425385Y-80038961D01*
X105473004Y-79991342D01*
X105520623Y-79896104D01*
X105520623Y-79086580D01*
X106520623Y-80086580D02*
X105949195Y-80086580D01*
X106234909Y-80086580D02*
X106234909Y-79086580D01*
X106139671Y-79229438D01*
X106044433Y-79324676D01*
X105949195Y-79372295D01*
D13*
X97978411Y-80723167D02*
X97978411Y-79023167D01*
X98549840Y-79023167D01*
X98692697Y-79104120D01*
X98764125Y-79185072D01*
X98835554Y-79346977D01*
X98835554Y-79589834D01*
X98764125Y-79751739D01*
X98692697Y-79832691D01*
X98549840Y-79913643D01*
X97978411Y-79913643D01*
X99478411Y-80723167D02*
X99478411Y-79023167D01*
X99478411Y-79670786D02*
X99621268Y-79589834D01*
X99906982Y-79589834D01*
X100049840Y-79670786D01*
X100121268Y-79751739D01*
X100192697Y-79913643D01*
X100192697Y-80399358D01*
X100121268Y-80561262D01*
X100049840Y-80642215D01*
X99906982Y-80723167D01*
X99621268Y-80723167D01*
X99478411Y-80642215D01*
D10*
D14*
X109937566Y-84651814D02*
X109899471Y-84689909D01*
X109785185Y-84728004D01*
X109708995Y-84728004D01*
X109594709Y-84689909D01*
X109518519Y-84613719D01*
X109480423Y-84537528D01*
X109442328Y-84385147D01*
X109442328Y-84270861D01*
X109480423Y-84118480D01*
X109518519Y-84042290D01*
X109594709Y-83966100D01*
X109708995Y-83928004D01*
X109785185Y-83928004D01*
X109899471Y-83966100D01*
X109937566Y-84004195D01*
X110699471Y-84728004D02*
X110242328Y-84728004D01*
X110470900Y-84728004D02*
X110470900Y-83928004D01*
X110394709Y-84042290D01*
X110318519Y-84118480D01*
X110242328Y-84156576D01*
X103104966Y-84334304D02*
X102838300Y-83953352D01*
X102647823Y-84334304D02*
X102647823Y-83534304D01*
X102952585Y-83534304D01*
X103028776Y-83572400D01*
X103066871Y-83610495D01*
X103104966Y-83686685D01*
X103104966Y-83800971D01*
X103066871Y-83877161D01*
X103028776Y-83915257D01*
X102952585Y-83953352D01*
X102647823Y-83953352D01*
X103866871Y-84334304D02*
X103409728Y-84334304D01*
X103638300Y-84334304D02*
X103638300Y-83534304D01*
X103562109Y-83648590D01*
X103485919Y-83724780D01*
X103409728Y-83762876D01*
X103130366Y-85566204D02*
X102863700Y-85185252D01*
X102673223Y-85566204D02*
X102673223Y-84766204D01*
X102977985Y-84766204D01*
X103054176Y-84804300D01*
X103092271Y-84842395D01*
X103130366Y-84918585D01*
X103130366Y-85032871D01*
X103092271Y-85109061D01*
X103054176Y-85147157D01*
X102977985Y-85185252D01*
X102673223Y-85185252D01*
X103435128Y-84842395D02*
X103473223Y-84804300D01*
X103549414Y-84766204D01*
X103739890Y-84766204D01*
X103816080Y-84804300D01*
X103854176Y-84842395D01*
X103892271Y-84918585D01*
X103892271Y-84994776D01*
X103854176Y-85109061D01*
X103397033Y-85566204D01*
X103892271Y-85566204D01*
D10*
X109260500Y-79328128D02*
X109217642Y-79370985D01*
X109089071Y-79413842D01*
X109003357Y-79413842D01*
X108874785Y-79370985D01*
X108789071Y-79285271D01*
X108746214Y-79199557D01*
X108703357Y-79028128D01*
X108703357Y-78899557D01*
X108746214Y-78728128D01*
X108789071Y-78642414D01*
X108874785Y-78556700D01*
X109003357Y-78513842D01*
X109089071Y-78513842D01*
X109217642Y-78556700D01*
X109260500Y-78599557D01*
X109603357Y-78599557D02*
X109646214Y-78556700D01*
X109731928Y-78513842D01*
X109946214Y-78513842D01*
X110031928Y-78556700D01*
X110074785Y-78599557D01*
X110117642Y-78685271D01*
X110117642Y-78770985D01*
X110074785Y-78899557D01*
X109560500Y-79413842D01*
X110117642Y-79413842D01*
X113188709Y-83654785D02*
X113226804Y-83540500D01*
X113226804Y-83350023D01*
X113188709Y-83273833D01*
X113150614Y-83235738D01*
X113074423Y-83197642D01*
X112998233Y-83197642D01*
X112922042Y-83235738D01*
X112883947Y-83273833D01*
X112845852Y-83350023D01*
X112807757Y-83502404D01*
X112769661Y-83578595D01*
X112731566Y-83616690D01*
X112655376Y-83654785D01*
X112579185Y-83654785D01*
X112502995Y-83616690D01*
X112464900Y-83578595D01*
X112426804Y-83502404D01*
X112426804Y-83311928D01*
X112464900Y-83197642D01*
X112426804Y-82626214D02*
X112998233Y-82626214D01*
X113112519Y-82664309D01*
X113188709Y-82740500D01*
X113226804Y-82854785D01*
X113226804Y-82930976D01*
X113226804Y-81826214D02*
X113226804Y-82283357D01*
X113226804Y-82054785D02*
X112426804Y-82054785D01*
X112541090Y-82130976D01*
X112617280Y-82207166D01*
X112655376Y-82283357D01*
M02*
