G04 #@! TF.GenerationSoftware,KiCad,Pcbnew,5.1.5+dfsg1-2build2*
G04 #@! TF.CreationDate,2021-02-10T08:24:25+02:00*
G04 #@! TF.ProjectId,MOD-BME280_RevB,4d4f442d-424d-4453-9238-305f52657642,rev?*
G04 #@! TF.SameCoordinates,Original*
G04 #@! TF.FileFunction,Copper,L2,Bot*
G04 #@! TF.FilePolarity,Positive*
%FSLAX46Y46*%
G04 Gerber Fmt 4.6, Leading zero omitted, Abs format (unit mm)*
G04 Created by KiCad (PCBNEW 5.1.5+dfsg1-2build2) date 2021-02-10 08:24:25*
%MOMM*%
%LPD*%
G04 APERTURE LIST*
%ADD10C,0.800000*%
%ADD11C,0.508000*%
%ADD12C,0.254000*%
G04 APERTURE END LIST*
D10*
X103327200Y-82588100D03*
X109364353Y-79925753D03*
X99783900Y-84048600D03*
X111911088Y-73302310D03*
X109207300Y-83992700D03*
X111836200Y-81788000D03*
X110490000Y-78092300D03*
D11*
X106743500Y-84048600D02*
X106695307Y-84096793D01*
X103339900Y-82600800D02*
X103339900Y-84048600D01*
X109296200Y-79857600D02*
X109296200Y-83870800D01*
X109296200Y-79857600D02*
X109364353Y-79925753D01*
X106743500Y-84048600D02*
X103339900Y-84048600D01*
X103339900Y-84048600D02*
X100349585Y-84048600D01*
X109118400Y-84048600D02*
X106743500Y-84048600D01*
X109296200Y-83870800D02*
X109118400Y-84048600D01*
X100349585Y-84048600D02*
X99783900Y-84048600D01*
X109364353Y-75849045D02*
X111911088Y-73302310D01*
X109364353Y-79925753D02*
X109364353Y-75849045D01*
X110490000Y-78092300D02*
X110490000Y-80441800D01*
X110490000Y-80441800D02*
X111836200Y-81788000D01*
D12*
G36*
X115495001Y-77952606D02*
G01*
X110030925Y-90095000D01*
X100789076Y-90095000D01*
X98022323Y-83946661D01*
X98748900Y-83946661D01*
X98748900Y-84150539D01*
X98788674Y-84350498D01*
X98866695Y-84538856D01*
X98979963Y-84708374D01*
X99124126Y-84852537D01*
X99293644Y-84965805D01*
X99482002Y-85043826D01*
X99681961Y-85083600D01*
X99885839Y-85083600D01*
X100085798Y-85043826D01*
X100274156Y-84965805D01*
X100316368Y-84937600D01*
X103296233Y-84937600D01*
X103339900Y-84941901D01*
X103383567Y-84937600D01*
X106404568Y-84937600D01*
X106521033Y-84972929D01*
X106695307Y-84990093D01*
X106869581Y-84972929D01*
X106986046Y-84937600D01*
X108783905Y-84937600D01*
X108905402Y-84987926D01*
X109105361Y-85027700D01*
X109309239Y-85027700D01*
X109509198Y-84987926D01*
X109697556Y-84909905D01*
X109867074Y-84796637D01*
X110011237Y-84652474D01*
X110124505Y-84482956D01*
X110202526Y-84294598D01*
X110242300Y-84094639D01*
X110242300Y-83890761D01*
X110202526Y-83690802D01*
X110185200Y-83648974D01*
X110185200Y-80560219D01*
X110281558Y-80416009D01*
X110359579Y-80227651D01*
X110399353Y-80027692D01*
X110399353Y-79823814D01*
X110359579Y-79623855D01*
X110281558Y-79435497D01*
X110253353Y-79393285D01*
X110253353Y-76217280D01*
X112163194Y-74307440D01*
X112212986Y-74297536D01*
X112401344Y-74219515D01*
X112570862Y-74106247D01*
X112715025Y-73962084D01*
X112828293Y-73792566D01*
X112906314Y-73604208D01*
X112946088Y-73404249D01*
X112946088Y-73200371D01*
X112906314Y-73000412D01*
X112828293Y-72812054D01*
X112715025Y-72642536D01*
X112570862Y-72498373D01*
X112401344Y-72385105D01*
X112212986Y-72307084D01*
X112013027Y-72267310D01*
X111809149Y-72267310D01*
X111609190Y-72307084D01*
X111420832Y-72385105D01*
X111251314Y-72498373D01*
X111107151Y-72642536D01*
X110993883Y-72812054D01*
X110915862Y-73000412D01*
X110905958Y-73050204D01*
X108766612Y-75189551D01*
X108732695Y-75217386D01*
X108704860Y-75251303D01*
X108704858Y-75251305D01*
X108621601Y-75352754D01*
X108539051Y-75507193D01*
X108488217Y-75674771D01*
X108471053Y-75849045D01*
X108475354Y-75892715D01*
X108475353Y-79393285D01*
X108447148Y-79435497D01*
X108369127Y-79623855D01*
X108329353Y-79823814D01*
X108329353Y-80027692D01*
X108369127Y-80227651D01*
X108407200Y-80319567D01*
X108407201Y-83159600D01*
X106787159Y-83159600D01*
X106743499Y-83155300D01*
X106699839Y-83159600D01*
X104228900Y-83159600D01*
X104228900Y-83101561D01*
X104244405Y-83078356D01*
X104322426Y-82889998D01*
X104362200Y-82690039D01*
X104362200Y-82486161D01*
X104322426Y-82286202D01*
X104244405Y-82097844D01*
X104131137Y-81928326D01*
X103986974Y-81784163D01*
X103817456Y-81670895D01*
X103629098Y-81592874D01*
X103429139Y-81553100D01*
X103225261Y-81553100D01*
X103025302Y-81592874D01*
X102836944Y-81670895D01*
X102667426Y-81784163D01*
X102523263Y-81928326D01*
X102409995Y-82097844D01*
X102331974Y-82286202D01*
X102292200Y-82486161D01*
X102292200Y-82690039D01*
X102331974Y-82889998D01*
X102409995Y-83078356D01*
X102450900Y-83139575D01*
X102450900Y-83159600D01*
X100316368Y-83159600D01*
X100274156Y-83131395D01*
X100085798Y-83053374D01*
X99885839Y-83013600D01*
X99681961Y-83013600D01*
X99482002Y-83053374D01*
X99293644Y-83131395D01*
X99124126Y-83244663D01*
X98979963Y-83388826D01*
X98866695Y-83558344D01*
X98788674Y-83746702D01*
X98748900Y-83946661D01*
X98022323Y-83946661D01*
X95325000Y-77952612D01*
X95325000Y-72521585D01*
X100365000Y-72521585D01*
X100365000Y-72764859D01*
X100412460Y-73003458D01*
X100505557Y-73228214D01*
X100640713Y-73430489D01*
X100812733Y-73602509D01*
X101015008Y-73737665D01*
X101239764Y-73830762D01*
X101478363Y-73878222D01*
X101721637Y-73878222D01*
X101960236Y-73830762D01*
X102184992Y-73737665D01*
X102387267Y-73602509D01*
X102559287Y-73430489D01*
X102694443Y-73228214D01*
X102787540Y-73003458D01*
X102835000Y-72764859D01*
X102835000Y-72521585D01*
X107985000Y-72521585D01*
X107985000Y-72764859D01*
X108032460Y-73003458D01*
X108125557Y-73228214D01*
X108260713Y-73430489D01*
X108432733Y-73602509D01*
X108635008Y-73737665D01*
X108859764Y-73830762D01*
X109098363Y-73878222D01*
X109341637Y-73878222D01*
X109580236Y-73830762D01*
X109804992Y-73737665D01*
X110007267Y-73602509D01*
X110179287Y-73430489D01*
X110314443Y-73228214D01*
X110407540Y-73003458D01*
X110455000Y-72764859D01*
X110455000Y-72521585D01*
X110407540Y-72282986D01*
X110314443Y-72058230D01*
X110179287Y-71855955D01*
X110007267Y-71683935D01*
X109804992Y-71548779D01*
X109580236Y-71455682D01*
X109341637Y-71408222D01*
X109098363Y-71408222D01*
X108859764Y-71455682D01*
X108635008Y-71548779D01*
X108432733Y-71683935D01*
X108260713Y-71855955D01*
X108125557Y-72058230D01*
X108032460Y-72282986D01*
X107985000Y-72521585D01*
X102835000Y-72521585D01*
X102787540Y-72282986D01*
X102694443Y-72058230D01*
X102559287Y-71855955D01*
X102387267Y-71683935D01*
X102184992Y-71548779D01*
X101960236Y-71455682D01*
X101721637Y-71408222D01*
X101478363Y-71408222D01*
X101239764Y-71455682D01*
X101015008Y-71548779D01*
X100812733Y-71683935D01*
X100640713Y-71855955D01*
X100505557Y-72058230D01*
X100412460Y-72282986D01*
X100365000Y-72521585D01*
X95325000Y-72521585D01*
X95325000Y-67385000D01*
X115495000Y-67385000D01*
X115495001Y-77952606D01*
G37*
X115495001Y-77952606D02*
X110030925Y-90095000D01*
X100789076Y-90095000D01*
X98022323Y-83946661D01*
X98748900Y-83946661D01*
X98748900Y-84150539D01*
X98788674Y-84350498D01*
X98866695Y-84538856D01*
X98979963Y-84708374D01*
X99124126Y-84852537D01*
X99293644Y-84965805D01*
X99482002Y-85043826D01*
X99681961Y-85083600D01*
X99885839Y-85083600D01*
X100085798Y-85043826D01*
X100274156Y-84965805D01*
X100316368Y-84937600D01*
X103296233Y-84937600D01*
X103339900Y-84941901D01*
X103383567Y-84937600D01*
X106404568Y-84937600D01*
X106521033Y-84972929D01*
X106695307Y-84990093D01*
X106869581Y-84972929D01*
X106986046Y-84937600D01*
X108783905Y-84937600D01*
X108905402Y-84987926D01*
X109105361Y-85027700D01*
X109309239Y-85027700D01*
X109509198Y-84987926D01*
X109697556Y-84909905D01*
X109867074Y-84796637D01*
X110011237Y-84652474D01*
X110124505Y-84482956D01*
X110202526Y-84294598D01*
X110242300Y-84094639D01*
X110242300Y-83890761D01*
X110202526Y-83690802D01*
X110185200Y-83648974D01*
X110185200Y-80560219D01*
X110281558Y-80416009D01*
X110359579Y-80227651D01*
X110399353Y-80027692D01*
X110399353Y-79823814D01*
X110359579Y-79623855D01*
X110281558Y-79435497D01*
X110253353Y-79393285D01*
X110253353Y-76217280D01*
X112163194Y-74307440D01*
X112212986Y-74297536D01*
X112401344Y-74219515D01*
X112570862Y-74106247D01*
X112715025Y-73962084D01*
X112828293Y-73792566D01*
X112906314Y-73604208D01*
X112946088Y-73404249D01*
X112946088Y-73200371D01*
X112906314Y-73000412D01*
X112828293Y-72812054D01*
X112715025Y-72642536D01*
X112570862Y-72498373D01*
X112401344Y-72385105D01*
X112212986Y-72307084D01*
X112013027Y-72267310D01*
X111809149Y-72267310D01*
X111609190Y-72307084D01*
X111420832Y-72385105D01*
X111251314Y-72498373D01*
X111107151Y-72642536D01*
X110993883Y-72812054D01*
X110915862Y-73000412D01*
X110905958Y-73050204D01*
X108766612Y-75189551D01*
X108732695Y-75217386D01*
X108704860Y-75251303D01*
X108704858Y-75251305D01*
X108621601Y-75352754D01*
X108539051Y-75507193D01*
X108488217Y-75674771D01*
X108471053Y-75849045D01*
X108475354Y-75892715D01*
X108475353Y-79393285D01*
X108447148Y-79435497D01*
X108369127Y-79623855D01*
X108329353Y-79823814D01*
X108329353Y-80027692D01*
X108369127Y-80227651D01*
X108407200Y-80319567D01*
X108407201Y-83159600D01*
X106787159Y-83159600D01*
X106743499Y-83155300D01*
X106699839Y-83159600D01*
X104228900Y-83159600D01*
X104228900Y-83101561D01*
X104244405Y-83078356D01*
X104322426Y-82889998D01*
X104362200Y-82690039D01*
X104362200Y-82486161D01*
X104322426Y-82286202D01*
X104244405Y-82097844D01*
X104131137Y-81928326D01*
X103986974Y-81784163D01*
X103817456Y-81670895D01*
X103629098Y-81592874D01*
X103429139Y-81553100D01*
X103225261Y-81553100D01*
X103025302Y-81592874D01*
X102836944Y-81670895D01*
X102667426Y-81784163D01*
X102523263Y-81928326D01*
X102409995Y-82097844D01*
X102331974Y-82286202D01*
X102292200Y-82486161D01*
X102292200Y-82690039D01*
X102331974Y-82889998D01*
X102409995Y-83078356D01*
X102450900Y-83139575D01*
X102450900Y-83159600D01*
X100316368Y-83159600D01*
X100274156Y-83131395D01*
X100085798Y-83053374D01*
X99885839Y-83013600D01*
X99681961Y-83013600D01*
X99482002Y-83053374D01*
X99293644Y-83131395D01*
X99124126Y-83244663D01*
X98979963Y-83388826D01*
X98866695Y-83558344D01*
X98788674Y-83746702D01*
X98748900Y-83946661D01*
X98022323Y-83946661D01*
X95325000Y-77952612D01*
X95325000Y-72521585D01*
X100365000Y-72521585D01*
X100365000Y-72764859D01*
X100412460Y-73003458D01*
X100505557Y-73228214D01*
X100640713Y-73430489D01*
X100812733Y-73602509D01*
X101015008Y-73737665D01*
X101239764Y-73830762D01*
X101478363Y-73878222D01*
X101721637Y-73878222D01*
X101960236Y-73830762D01*
X102184992Y-73737665D01*
X102387267Y-73602509D01*
X102559287Y-73430489D01*
X102694443Y-73228214D01*
X102787540Y-73003458D01*
X102835000Y-72764859D01*
X102835000Y-72521585D01*
X107985000Y-72521585D01*
X107985000Y-72764859D01*
X108032460Y-73003458D01*
X108125557Y-73228214D01*
X108260713Y-73430489D01*
X108432733Y-73602509D01*
X108635008Y-73737665D01*
X108859764Y-73830762D01*
X109098363Y-73878222D01*
X109341637Y-73878222D01*
X109580236Y-73830762D01*
X109804992Y-73737665D01*
X110007267Y-73602509D01*
X110179287Y-73430489D01*
X110314443Y-73228214D01*
X110407540Y-73003458D01*
X110455000Y-72764859D01*
X110455000Y-72521585D01*
X110407540Y-72282986D01*
X110314443Y-72058230D01*
X110179287Y-71855955D01*
X110007267Y-71683935D01*
X109804992Y-71548779D01*
X109580236Y-71455682D01*
X109341637Y-71408222D01*
X109098363Y-71408222D01*
X108859764Y-71455682D01*
X108635008Y-71548779D01*
X108432733Y-71683935D01*
X108260713Y-71855955D01*
X108125557Y-72058230D01*
X108032460Y-72282986D01*
X107985000Y-72521585D01*
X102835000Y-72521585D01*
X102787540Y-72282986D01*
X102694443Y-72058230D01*
X102559287Y-71855955D01*
X102387267Y-71683935D01*
X102184992Y-71548779D01*
X101960236Y-71455682D01*
X101721637Y-71408222D01*
X101478363Y-71408222D01*
X101239764Y-71455682D01*
X101015008Y-71548779D01*
X100812733Y-71683935D01*
X100640713Y-71855955D01*
X100505557Y-72058230D01*
X100412460Y-72282986D01*
X100365000Y-72521585D01*
X95325000Y-72521585D01*
X95325000Y-67385000D01*
X115495000Y-67385000D01*
X115495001Y-77952606D01*
M02*
