G04 #@! TF.GenerationSoftware,KiCad,Pcbnew,5.1.5+dfsg1-2build2*
G04 #@! TF.CreationDate,2021-02-10T08:24:25+02:00*
G04 #@! TF.ProjectId,MOD-BME280_RevB,4d4f442d-424d-4453-9238-305f52657642,rev?*
G04 #@! TF.SameCoordinates,Original*
G04 #@! TF.FileFunction,Copper,L1,Top*
G04 #@! TF.FilePolarity,Positive*
%FSLAX46Y46*%
G04 Gerber Fmt 4.6, Leading zero omitted, Abs format (unit mm)*
G04 Created by KiCad (PCBNEW 5.1.5+dfsg1-2build2) date 2021-02-10 08:24:25*
%MOMM*%
%LPD*%
G04 APERTURE LIST*
%ADD10C,0.508000*%
%ADD11R,1.270000X3.810000*%
%ADD12R,0.500000X0.325000*%
%ADD13C,1.000000*%
%ADD14R,1.016000X1.016000*%
%ADD15R,1.016000X0.762000*%
%ADD16C,0.800000*%
%ADD17C,0.250000*%
G04 APERTURE END LIST*
D10*
X113004600Y-78600300D02*
X113004600Y-79743300D01*
D11*
X110490000Y-69468222D03*
X110490000Y-75818222D03*
X107950000Y-69468222D03*
X107950000Y-75818222D03*
X105410000Y-69468222D03*
X105410000Y-75818222D03*
X102870000Y-69468222D03*
X102870000Y-75818222D03*
X100330000Y-69468222D03*
X100330000Y-75818222D03*
D12*
X104639000Y-83220200D03*
X104639000Y-82570200D03*
X104639000Y-81920200D03*
X104639000Y-81270200D03*
X106689000Y-81270200D03*
X106689000Y-81920200D03*
X106689000Y-82570200D03*
X106689000Y-83220200D03*
D11*
X109220000Y-88900000D03*
X106680000Y-88900000D03*
X104140000Y-88900000D03*
X101600000Y-88900000D03*
D13*
X113538000Y-71882000D03*
X105587800Y-85267800D03*
X97282000Y-70104000D03*
D14*
X109207300Y-82715100D03*
X110985300Y-82715100D03*
X99783900Y-85013800D03*
X101561900Y-85013800D03*
X101574600Y-83172300D03*
X99796600Y-83172300D03*
X109207300Y-80899000D03*
X110985300Y-80899000D03*
D15*
X113004600Y-78600300D03*
X113004600Y-79743300D03*
X113004600Y-80886300D03*
D16*
X103327200Y-82588100D03*
X109364353Y-79925753D03*
X99783900Y-84048600D03*
X111911088Y-73302310D03*
X109207300Y-83992700D03*
X111836200Y-81788000D03*
X110490000Y-78092300D03*
D17*
X106689000Y-83220200D02*
X107787800Y-83220200D01*
X107787800Y-83220200D02*
X108292900Y-82715100D01*
X108292900Y-82715100D02*
X109207300Y-82715100D01*
D10*
X109207300Y-84303278D02*
X107095306Y-86415272D01*
X109207300Y-82715100D02*
X109207300Y-83992700D01*
X106695307Y-88884693D02*
X106695307Y-87380956D01*
X106680000Y-88900000D02*
X106695307Y-88884693D01*
X107095306Y-86415272D02*
X106695307Y-86815271D01*
X106695307Y-87380956D02*
X106695307Y-86815271D01*
D17*
X103345100Y-82570200D02*
X103327200Y-82588100D01*
X104639000Y-82570200D02*
X103345100Y-82570200D01*
D10*
X109364353Y-79925753D02*
X109364353Y-80741947D01*
X109364353Y-80741947D02*
X109207300Y-80899000D01*
X113004600Y-78600300D02*
X113004600Y-77711300D01*
X113004600Y-77711300D02*
X111911088Y-76617788D01*
X110490000Y-71881222D02*
X110490000Y-69468222D01*
X111911088Y-76617788D02*
X111911088Y-73302310D01*
X111911088Y-73302310D02*
X110490000Y-71881222D01*
X99783900Y-84048600D02*
X99783900Y-85013800D01*
X99783900Y-84048600D02*
X99783900Y-83185000D01*
X99783900Y-83185000D02*
X99796600Y-83172300D01*
D17*
X106689000Y-81920200D02*
X107189000Y-81920200D01*
X107189000Y-81920200D02*
X108210200Y-80899000D01*
X108210200Y-80899000D02*
X109207300Y-80899000D01*
D10*
X109207300Y-83992700D02*
X109207300Y-84303278D01*
D17*
X106689000Y-82570200D02*
X107510700Y-82570200D01*
X108254800Y-81826100D02*
X110854300Y-81826100D01*
X107510700Y-82570200D02*
X108254800Y-81826100D01*
X110854300Y-81826100D02*
X110985300Y-81957100D01*
X110985300Y-81657000D02*
X110985300Y-81788000D01*
X110985300Y-81788000D02*
X110985300Y-81957100D01*
D10*
X111836200Y-81788000D02*
X111270515Y-81788000D01*
X111270515Y-81788000D02*
X110985300Y-81788000D01*
X110490000Y-75818222D02*
X110490000Y-78092300D01*
X110985300Y-80899000D02*
X112991900Y-80899000D01*
X112991900Y-80899000D02*
X113004600Y-80886300D01*
X110985300Y-80899000D02*
X110985300Y-82715100D01*
X110985300Y-84442300D02*
X109220000Y-86207600D01*
X109220000Y-86207600D02*
X109220000Y-88900000D01*
X110985300Y-82715100D02*
X110985300Y-84442300D01*
D17*
X106689000Y-82570200D02*
X105999400Y-82570200D01*
X105999400Y-82570200D02*
X105349400Y-83220200D01*
X105349400Y-83220200D02*
X105139000Y-83220200D01*
X105139000Y-83220200D02*
X104639000Y-83220200D01*
X110985300Y-80899000D02*
X110985300Y-81657000D01*
X110985300Y-81957100D02*
X110985300Y-82715100D01*
D10*
X105410000Y-69468222D02*
X105410000Y-71793100D01*
X104101900Y-73101200D02*
X104101900Y-80213200D01*
X105410000Y-71793100D02*
X104101900Y-73101200D01*
D17*
X104228900Y-81270200D02*
X101724100Y-81270200D01*
X101724100Y-81270200D02*
X100685600Y-82308700D01*
X100685600Y-82308700D02*
X100685600Y-84895500D01*
X100685600Y-84895500D02*
X100803900Y-85013800D01*
X100803900Y-85013800D02*
X101561900Y-85013800D01*
X104101900Y-80213200D02*
X104101900Y-81143200D01*
X104101900Y-81143200D02*
X104228900Y-81270200D01*
X104639000Y-81270200D02*
X104228900Y-81270200D01*
D10*
X101600000Y-88900000D02*
X101600000Y-85051900D01*
X101600000Y-85051900D02*
X101561900Y-85013800D01*
D17*
X104140000Y-86233000D02*
X104140000Y-86474300D01*
D10*
X104140000Y-88900000D02*
X104140000Y-86474300D01*
D17*
X101574600Y-83172300D02*
X102332600Y-83172300D01*
X102332600Y-83172300D02*
X102984300Y-83824000D01*
X102984300Y-83824000D02*
X102984300Y-85077300D01*
X102984300Y-85077300D02*
X104140000Y-86233000D01*
X101574600Y-82414300D02*
X101574600Y-83172300D01*
X104043798Y-81824998D02*
X102163902Y-81824998D01*
X102163902Y-81824998D02*
X101574600Y-82414300D01*
X104139000Y-81920200D02*
X104043798Y-81824998D01*
X104639000Y-81920200D02*
X104139000Y-81920200D01*
X105410000Y-80238600D02*
X105410000Y-81649200D01*
D10*
X105410000Y-75818222D02*
X105410000Y-78231222D01*
X105410000Y-78231222D02*
X105410000Y-80238600D01*
D17*
X105410000Y-81649200D02*
X105139000Y-81920200D01*
X105139000Y-81920200D02*
X104639000Y-81920200D01*
X106689000Y-81270200D02*
X106994600Y-81270200D01*
X109270800Y-78994000D02*
X111497300Y-78994000D01*
X106994600Y-81270200D02*
X109270800Y-78994000D01*
X111497300Y-78994000D02*
X112246600Y-79743300D01*
X112246600Y-79743300D02*
X113004600Y-79743300D01*
M02*
