G04 #@! TF.GenerationSoftware,KiCad,Pcbnew,5.1.5+dfsg1-2build2*
G04 #@! TF.CreationDate,2021-02-10T08:24:25+02:00*
G04 #@! TF.ProjectId,MOD-BME280_RevB,4d4f442d-424d-4453-9238-305f52657642,rev?*
G04 #@! TF.SameCoordinates,Original*
G04 #@! TF.FileFunction,Legend,Bot*
G04 #@! TF.FilePolarity,Positive*
%FSLAX46Y46*%
G04 Gerber Fmt 4.6, Leading zero omitted, Abs format (unit mm)*
G04 Created by KiCad (PCBNEW 5.1.5+dfsg1-2build2) date 2021-02-10 08:24:25*
%MOMM*%
%LPD*%
G04 APERTURE LIST*
%ADD10C,0.250000*%
%ADD11C,0.200000*%
%ADD12C,0.300000*%
%ADD13C,0.400000*%
%ADD14C,0.700000*%
%ADD15C,0.500000*%
%ADD16C,0.100000*%
G04 APERTURE END LIST*
D10*
X111556038Y-84186780D02*
X111222704Y-85186780D01*
X110889371Y-84186780D01*
X110556038Y-85186780D02*
X110556038Y-84186780D01*
X110317942Y-84186780D01*
X110175085Y-84234400D01*
X110079847Y-84329638D01*
X110032228Y-84424876D01*
X109984609Y-84615352D01*
X109984609Y-84758209D01*
X110032228Y-84948685D01*
X110079847Y-85043923D01*
X110175085Y-85139161D01*
X110317942Y-85186780D01*
X110556038Y-85186780D01*
X109556038Y-85186780D02*
X109556038Y-84186780D01*
X109317942Y-84186780D01*
X109175085Y-84234400D01*
X109079847Y-84329638D01*
X109032228Y-84424876D01*
X108984609Y-84615352D01*
X108984609Y-84758209D01*
X109032228Y-84948685D01*
X109079847Y-85043923D01*
X109175085Y-85139161D01*
X109317942Y-85186780D01*
X109556038Y-85186780D01*
X108556038Y-85091542D02*
X108508419Y-85139161D01*
X108556038Y-85186780D01*
X108603657Y-85139161D01*
X108556038Y-85091542D01*
X108556038Y-85186780D01*
X108556038Y-84567733D02*
X108508419Y-84615352D01*
X108556038Y-84662971D01*
X108603657Y-84615352D01*
X108556038Y-84567733D01*
X108556038Y-84662971D01*
X107317942Y-84805828D02*
X106556038Y-84805828D01*
X106936990Y-85186780D02*
X106936990Y-84424876D01*
X105556038Y-85186780D02*
X106127466Y-85186780D01*
X105841752Y-85186780D02*
X105841752Y-84186780D01*
X105936990Y-84329638D01*
X106032228Y-84424876D01*
X106127466Y-84472495D01*
X105127466Y-85091542D02*
X105079847Y-85139161D01*
X105127466Y-85186780D01*
X105175085Y-85139161D01*
X105127466Y-85091542D01*
X105127466Y-85186780D01*
X104508419Y-84615352D02*
X104603657Y-84567733D01*
X104651276Y-84520114D01*
X104698895Y-84424876D01*
X104698895Y-84377257D01*
X104651276Y-84282019D01*
X104603657Y-84234400D01*
X104508419Y-84186780D01*
X104317942Y-84186780D01*
X104222704Y-84234400D01*
X104175085Y-84282019D01*
X104127466Y-84377257D01*
X104127466Y-84424876D01*
X104175085Y-84520114D01*
X104222704Y-84567733D01*
X104317942Y-84615352D01*
X104508419Y-84615352D01*
X104603657Y-84662971D01*
X104651276Y-84710590D01*
X104698895Y-84805828D01*
X104698895Y-84996304D01*
X104651276Y-85091542D01*
X104603657Y-85139161D01*
X104508419Y-85186780D01*
X104317942Y-85186780D01*
X104222704Y-85139161D01*
X104175085Y-85091542D01*
X104127466Y-84996304D01*
X104127466Y-84805828D01*
X104175085Y-84710590D01*
X104222704Y-84662971D01*
X104317942Y-84615352D01*
X103698895Y-85091542D02*
X103651276Y-85139161D01*
X103698895Y-85186780D01*
X103746514Y-85139161D01*
X103698895Y-85091542D01*
X103698895Y-85186780D01*
X103222704Y-85091542D02*
X103175085Y-85139161D01*
X103222704Y-85186780D01*
X103270323Y-85139161D01*
X103222704Y-85091542D01*
X103222704Y-85186780D01*
X102746514Y-85091542D02*
X102698895Y-85139161D01*
X102746514Y-85186780D01*
X102794133Y-85139161D01*
X102746514Y-85091542D01*
X102746514Y-85186780D01*
X102365561Y-84186780D02*
X101746514Y-84186780D01*
X102079847Y-84567733D01*
X101936990Y-84567733D01*
X101841752Y-84615352D01*
X101794133Y-84662971D01*
X101746514Y-84758209D01*
X101746514Y-84996304D01*
X101794133Y-85091542D01*
X101841752Y-85139161D01*
X101936990Y-85186780D01*
X102222704Y-85186780D01*
X102317942Y-85139161D01*
X102365561Y-85091542D01*
X101317942Y-85091542D02*
X101270323Y-85139161D01*
X101317942Y-85186780D01*
X101365561Y-85139161D01*
X101317942Y-85091542D01*
X101317942Y-85186780D01*
X100936990Y-84186780D02*
X100317942Y-84186780D01*
X100651276Y-84567733D01*
X100508419Y-84567733D01*
X100413180Y-84615352D01*
X100365561Y-84662971D01*
X100317942Y-84758209D01*
X100317942Y-84996304D01*
X100365561Y-85091542D01*
X100413180Y-85139161D01*
X100508419Y-85186780D01*
X100794133Y-85186780D01*
X100889371Y-85139161D01*
X100936990Y-85091542D01*
X100032228Y-84186780D02*
X99698895Y-85186780D01*
X99365561Y-84186780D01*
D11*
X101120285Y-72794042D02*
X101806000Y-73051185D01*
X101120285Y-73308328D01*
X100306000Y-73351185D02*
X100391714Y-73394042D01*
X100563142Y-73394042D01*
X100648857Y-73351185D01*
X100691714Y-73308328D01*
X100734571Y-73222614D01*
X100734571Y-72965471D01*
X100691714Y-72879757D01*
X100648857Y-72836900D01*
X100563142Y-72794042D01*
X100391714Y-72794042D01*
X100306000Y-72836900D01*
X99920285Y-72794042D02*
X99234571Y-73051185D01*
X99920285Y-73308328D01*
X98848857Y-72579757D02*
X98806000Y-72536900D01*
X98720285Y-72494042D01*
X98506000Y-72494042D01*
X98420285Y-72536900D01*
X98377428Y-72579757D01*
X98334571Y-72665471D01*
X98334571Y-72751185D01*
X98377428Y-72879757D01*
X98891714Y-73394042D01*
X98334571Y-73394042D01*
X97777428Y-72494042D02*
X97691714Y-72494042D01*
X97606000Y-72536900D01*
X97563142Y-72579757D01*
X97520285Y-72665471D01*
X97477428Y-72836900D01*
X97477428Y-73051185D01*
X97520285Y-73222614D01*
X97563142Y-73308328D01*
X97606000Y-73351185D01*
X97691714Y-73394042D01*
X97777428Y-73394042D01*
X97863142Y-73351185D01*
X97906000Y-73308328D01*
X97948857Y-73222614D01*
X97991714Y-73051185D01*
X97991714Y-72836900D01*
X97948857Y-72665471D01*
X97906000Y-72579757D01*
X97863142Y-72536900D01*
X97777428Y-72494042D01*
X96620285Y-73394042D02*
X97134571Y-73394042D01*
X96877428Y-73394042D02*
X96877428Y-72494042D01*
X96963142Y-72622614D01*
X97048857Y-72708328D01*
X97134571Y-72751185D01*
X96320285Y-72494042D02*
X95720285Y-72494042D01*
X96106000Y-73394042D01*
X98875695Y-76982580D02*
X99209028Y-76506390D01*
X99447123Y-76982580D02*
X99447123Y-75982580D01*
X99066171Y-75982580D01*
X98970933Y-76030200D01*
X98923314Y-76077819D01*
X98875695Y-76173057D01*
X98875695Y-76315914D01*
X98923314Y-76411152D01*
X98970933Y-76458771D01*
X99066171Y-76506390D01*
X99447123Y-76506390D01*
X98066171Y-76934961D02*
X98161409Y-76982580D01*
X98351885Y-76982580D01*
X98447123Y-76934961D01*
X98494742Y-76839723D01*
X98494742Y-76458771D01*
X98447123Y-76363533D01*
X98351885Y-76315914D01*
X98161409Y-76315914D01*
X98066171Y-76363533D01*
X98018552Y-76458771D01*
X98018552Y-76554009D01*
X98494742Y-76649247D01*
X97685219Y-76315914D02*
X97447123Y-76982580D01*
X97209028Y-76315914D01*
X96828076Y-76887342D02*
X96780457Y-76934961D01*
X96828076Y-76982580D01*
X96875695Y-76934961D01*
X96828076Y-76887342D01*
X96828076Y-76982580D01*
X96018552Y-76458771D02*
X95875695Y-76506390D01*
X95828076Y-76554009D01*
X95780457Y-76649247D01*
X95780457Y-76792104D01*
X95828076Y-76887342D01*
X95875695Y-76934961D01*
X95970933Y-76982580D01*
X96351885Y-76982580D01*
X96351885Y-75982580D01*
X96018552Y-75982580D01*
X95923314Y-76030200D01*
X95875695Y-76077819D01*
X95828076Y-76173057D01*
X95828076Y-76268295D01*
X95875695Y-76363533D01*
X95923314Y-76411152D01*
X96018552Y-76458771D01*
X96351885Y-76458771D01*
X114839233Y-73183704D02*
X114915423Y-73145609D01*
X114953519Y-73107514D01*
X114991614Y-73031323D01*
X114991614Y-72802752D01*
X114953519Y-72726561D01*
X114915423Y-72688466D01*
X114839233Y-72650371D01*
X114724947Y-72650371D01*
X114648757Y-72688466D01*
X114610661Y-72726561D01*
X114572566Y-72802752D01*
X114572566Y-73031323D01*
X114610661Y-73107514D01*
X114648757Y-73145609D01*
X114724947Y-73183704D01*
X114839233Y-73183704D01*
X114229709Y-72650371D02*
X114229709Y-73450371D01*
X114229709Y-72688466D02*
X114153519Y-72650371D01*
X114001138Y-72650371D01*
X113924947Y-72688466D01*
X113886852Y-72726561D01*
X113848757Y-72802752D01*
X113848757Y-73031323D01*
X113886852Y-73107514D01*
X113924947Y-73145609D01*
X114001138Y-73183704D01*
X114153519Y-73183704D01*
X114229709Y-73145609D01*
X113201138Y-73145609D02*
X113277328Y-73183704D01*
X113429709Y-73183704D01*
X113505900Y-73145609D01*
X113543995Y-73069419D01*
X113543995Y-72764657D01*
X113505900Y-72688466D01*
X113429709Y-72650371D01*
X113277328Y-72650371D01*
X113201138Y-72688466D01*
X113163042Y-72764657D01*
X113163042Y-72840847D01*
X113543995Y-72917038D01*
X112820185Y-72650371D02*
X112820185Y-73183704D01*
X112820185Y-72726561D02*
X112782090Y-72688466D01*
X112705900Y-72650371D01*
X112591614Y-72650371D01*
X112515423Y-72688466D01*
X112477328Y-72764657D01*
X112477328Y-73183704D01*
X111486852Y-73183704D02*
X111486852Y-72383704D01*
X111143995Y-73183704D02*
X111143995Y-72764657D01*
X111182090Y-72688466D01*
X111258280Y-72650371D01*
X111372566Y-72650371D01*
X111448757Y-72688466D01*
X111486852Y-72726561D01*
X110420185Y-73183704D02*
X110420185Y-72764657D01*
X110458280Y-72688466D01*
X110534471Y-72650371D01*
X110686852Y-72650371D01*
X110763042Y-72688466D01*
X110420185Y-73145609D02*
X110496376Y-73183704D01*
X110686852Y-73183704D01*
X110763042Y-73145609D01*
X110801138Y-73069419D01*
X110801138Y-72993228D01*
X110763042Y-72917038D01*
X110686852Y-72878942D01*
X110496376Y-72878942D01*
X110420185Y-72840847D01*
X110039233Y-73183704D02*
X110039233Y-72650371D01*
X110039233Y-72802752D02*
X110001138Y-72726561D01*
X109963042Y-72688466D01*
X109886852Y-72650371D01*
X109810661Y-72650371D01*
X109201138Y-73183704D02*
X109201138Y-72383704D01*
X109201138Y-73145609D02*
X109277328Y-73183704D01*
X109429709Y-73183704D01*
X109505900Y-73145609D01*
X109543995Y-73107514D01*
X109582090Y-73031323D01*
X109582090Y-72802752D01*
X109543995Y-72726561D01*
X109505900Y-72688466D01*
X109429709Y-72650371D01*
X109277328Y-72650371D01*
X109201138Y-72688466D01*
X108896376Y-72650371D02*
X108743995Y-73183704D01*
X108591614Y-72802752D01*
X108439233Y-73183704D01*
X108286852Y-72650371D01*
X107639233Y-73183704D02*
X107639233Y-72764657D01*
X107677328Y-72688466D01*
X107753519Y-72650371D01*
X107905900Y-72650371D01*
X107982090Y-72688466D01*
X107639233Y-73145609D02*
X107715423Y-73183704D01*
X107905900Y-73183704D01*
X107982090Y-73145609D01*
X108020185Y-73069419D01*
X108020185Y-72993228D01*
X107982090Y-72917038D01*
X107905900Y-72878942D01*
X107715423Y-72878942D01*
X107639233Y-72840847D01*
X107258280Y-73183704D02*
X107258280Y-72650371D01*
X107258280Y-72802752D02*
X107220185Y-72726561D01*
X107182090Y-72688466D01*
X107105900Y-72650371D01*
X107029709Y-72650371D01*
X106458280Y-73145609D02*
X106534471Y-73183704D01*
X106686852Y-73183704D01*
X106763042Y-73145609D01*
X106801138Y-73069419D01*
X106801138Y-72764657D01*
X106763042Y-72688466D01*
X106686852Y-72650371D01*
X106534471Y-72650371D01*
X106458280Y-72688466D01*
X106420185Y-72764657D01*
X106420185Y-72840847D01*
X106801138Y-72917038D01*
D10*
X102004761Y-87074523D02*
X102052380Y-87217380D01*
X102052380Y-87455476D01*
X102004761Y-87550714D01*
X101957142Y-87598333D01*
X101861904Y-87645952D01*
X101766666Y-87645952D01*
X101671428Y-87598333D01*
X101623809Y-87550714D01*
X101576190Y-87455476D01*
X101528571Y-87265000D01*
X101480952Y-87169761D01*
X101433333Y-87122142D01*
X101338095Y-87074523D01*
X101242857Y-87074523D01*
X101147619Y-87122142D01*
X101100000Y-87169761D01*
X101052380Y-87265000D01*
X101052380Y-87503095D01*
X101100000Y-87645952D01*
X101957142Y-88645952D02*
X102004761Y-88598333D01*
X102052380Y-88455476D01*
X102052380Y-88360238D01*
X102004761Y-88217380D01*
X101909523Y-88122142D01*
X101814285Y-88074523D01*
X101623809Y-88026904D01*
X101480952Y-88026904D01*
X101290476Y-88074523D01*
X101195238Y-88122142D01*
X101100000Y-88217380D01*
X101052380Y-88360238D01*
X101052380Y-88455476D01*
X101100000Y-88598333D01*
X101147619Y-88645952D01*
X102052380Y-89550714D02*
X102052380Y-89074523D01*
X101052380Y-89074523D01*
X104544761Y-87050714D02*
X104592380Y-87193571D01*
X104592380Y-87431666D01*
X104544761Y-87526904D01*
X104497142Y-87574523D01*
X104401904Y-87622142D01*
X104306666Y-87622142D01*
X104211428Y-87574523D01*
X104163809Y-87526904D01*
X104116190Y-87431666D01*
X104068571Y-87241190D01*
X104020952Y-87145952D01*
X103973333Y-87098333D01*
X103878095Y-87050714D01*
X103782857Y-87050714D01*
X103687619Y-87098333D01*
X103640000Y-87145952D01*
X103592380Y-87241190D01*
X103592380Y-87479285D01*
X103640000Y-87622142D01*
X104592380Y-88050714D02*
X103592380Y-88050714D01*
X103592380Y-88288809D01*
X103640000Y-88431666D01*
X103735238Y-88526904D01*
X103830476Y-88574523D01*
X104020952Y-88622142D01*
X104163809Y-88622142D01*
X104354285Y-88574523D01*
X104449523Y-88526904D01*
X104544761Y-88431666D01*
X104592380Y-88288809D01*
X104592380Y-88050714D01*
X104306666Y-89003095D02*
X104306666Y-89479285D01*
X104592380Y-88907857D02*
X103592380Y-89241190D01*
X104592380Y-89574523D01*
X106145080Y-87033266D02*
X107145080Y-87366600D01*
X106145080Y-87699933D01*
X107145080Y-88033266D02*
X106145080Y-88033266D01*
X106145080Y-88271361D01*
X106192700Y-88414219D01*
X106287938Y-88509457D01*
X106383176Y-88557076D01*
X106573652Y-88604695D01*
X106716509Y-88604695D01*
X106906985Y-88557076D01*
X107002223Y-88509457D01*
X107097461Y-88414219D01*
X107145080Y-88271361D01*
X107145080Y-88033266D01*
X107145080Y-89033266D02*
X106145080Y-89033266D01*
X106145080Y-89271361D01*
X106192700Y-89414219D01*
X106287938Y-89509457D01*
X106383176Y-89557076D01*
X106573652Y-89604695D01*
X106716509Y-89604695D01*
X106906985Y-89557076D01*
X107002223Y-89509457D01*
X107097461Y-89414219D01*
X107145080Y-89271361D01*
X107145080Y-89033266D01*
X108720000Y-87503095D02*
X108672380Y-87407857D01*
X108672380Y-87265000D01*
X108720000Y-87122142D01*
X108815238Y-87026904D01*
X108910476Y-86979285D01*
X109100952Y-86931666D01*
X109243809Y-86931666D01*
X109434285Y-86979285D01*
X109529523Y-87026904D01*
X109624761Y-87122142D01*
X109672380Y-87265000D01*
X109672380Y-87360238D01*
X109624761Y-87503095D01*
X109577142Y-87550714D01*
X109243809Y-87550714D01*
X109243809Y-87360238D01*
X109672380Y-87979285D02*
X108672380Y-87979285D01*
X109672380Y-88550714D01*
X108672380Y-88550714D01*
X109672380Y-89026904D02*
X108672380Y-89026904D01*
X108672380Y-89265000D01*
X108720000Y-89407857D01*
X108815238Y-89503095D01*
X108910476Y-89550714D01*
X109100952Y-89598333D01*
X109243809Y-89598333D01*
X109434285Y-89550714D01*
X109529523Y-89503095D01*
X109624761Y-89407857D01*
X109672380Y-89265000D01*
X109672380Y-89026904D01*
X113911614Y-77417157D02*
X113340185Y-77417157D01*
X113625900Y-78617157D02*
X113625900Y-77417157D01*
X112625900Y-78560014D02*
X112721138Y-78617157D01*
X112911614Y-78617157D01*
X113006852Y-78560014D01*
X113054471Y-78445728D01*
X113054471Y-77988585D01*
X113006852Y-77874300D01*
X112911614Y-77817157D01*
X112721138Y-77817157D01*
X112625900Y-77874300D01*
X112578280Y-77988585D01*
X112578280Y-78102871D01*
X113054471Y-78217157D01*
X112149709Y-78617157D02*
X112149709Y-77817157D01*
X112149709Y-77931442D02*
X112102090Y-77874300D01*
X112006852Y-77817157D01*
X111863995Y-77817157D01*
X111768757Y-77874300D01*
X111721138Y-77988585D01*
X111721138Y-78617157D01*
X111721138Y-77988585D02*
X111673519Y-77874300D01*
X111578280Y-77817157D01*
X111435423Y-77817157D01*
X111340185Y-77874300D01*
X111292566Y-77988585D01*
X111292566Y-78617157D01*
X110816376Y-77817157D02*
X110816376Y-79017157D01*
X110816376Y-77874300D02*
X110721138Y-77817157D01*
X110530661Y-77817157D01*
X110435423Y-77874300D01*
X110387804Y-77931442D01*
X110340185Y-78045728D01*
X110340185Y-78388585D01*
X110387804Y-78502871D01*
X110435423Y-78560014D01*
X110530661Y-78617157D01*
X110721138Y-78617157D01*
X110816376Y-78560014D01*
X109530661Y-78560014D02*
X109625900Y-78617157D01*
X109816376Y-78617157D01*
X109911614Y-78560014D01*
X109959233Y-78445728D01*
X109959233Y-77988585D01*
X109911614Y-77874300D01*
X109816376Y-77817157D01*
X109625900Y-77817157D01*
X109530661Y-77874300D01*
X109483042Y-77988585D01*
X109483042Y-78102871D01*
X109959233Y-78217157D01*
X109054471Y-78617157D02*
X109054471Y-77817157D01*
X109054471Y-78045728D02*
X109006852Y-77931442D01*
X108959233Y-77874300D01*
X108863995Y-77817157D01*
X108768757Y-77817157D01*
X108006852Y-78617157D02*
X108006852Y-77988585D01*
X108054471Y-77874300D01*
X108149709Y-77817157D01*
X108340185Y-77817157D01*
X108435423Y-77874300D01*
X108006852Y-78560014D02*
X108102090Y-78617157D01*
X108340185Y-78617157D01*
X108435423Y-78560014D01*
X108483042Y-78445728D01*
X108483042Y-78331442D01*
X108435423Y-78217157D01*
X108340185Y-78160014D01*
X108102090Y-78160014D01*
X108006852Y-78102871D01*
X107673519Y-77817157D02*
X107292566Y-77817157D01*
X107530661Y-77417157D02*
X107530661Y-78445728D01*
X107483042Y-78560014D01*
X107387804Y-78617157D01*
X107292566Y-78617157D01*
X106530661Y-77817157D02*
X106530661Y-78617157D01*
X106959233Y-77817157D02*
X106959233Y-78445728D01*
X106911614Y-78560014D01*
X106816376Y-78617157D01*
X106673519Y-78617157D01*
X106578280Y-78560014D01*
X106530661Y-78502871D01*
X106054471Y-78617157D02*
X106054471Y-77817157D01*
X106054471Y-78045728D02*
X106006852Y-77931442D01*
X105959233Y-77874300D01*
X105863995Y-77817157D01*
X105768757Y-77817157D01*
X105054471Y-78560014D02*
X105149709Y-78617157D01*
X105340185Y-78617157D01*
X105435423Y-78560014D01*
X105483042Y-78445728D01*
X105483042Y-77988585D01*
X105435423Y-77874300D01*
X105340185Y-77817157D01*
X105149709Y-77817157D01*
X105054471Y-77874300D01*
X105006852Y-77988585D01*
X105006852Y-78102871D01*
X105483042Y-78217157D01*
X104530661Y-78560014D02*
X104530661Y-78617157D01*
X104578280Y-78731442D01*
X104625900Y-78788585D01*
X103340185Y-78617157D02*
X103340185Y-77417157D01*
X102911614Y-78617157D02*
X102911614Y-77988585D01*
X102959233Y-77874300D01*
X103054471Y-77817157D01*
X103197328Y-77817157D01*
X103292566Y-77874300D01*
X103340185Y-77931442D01*
X102006852Y-77817157D02*
X102006852Y-78617157D01*
X102435423Y-77817157D02*
X102435423Y-78445728D01*
X102387804Y-78560014D01*
X102292566Y-78617157D01*
X102149709Y-78617157D01*
X102054471Y-78560014D01*
X102006852Y-78502871D01*
X101530661Y-78617157D02*
X101530661Y-77817157D01*
X101530661Y-77931442D02*
X101483042Y-77874300D01*
X101387804Y-77817157D01*
X101244947Y-77817157D01*
X101149709Y-77874300D01*
X101102090Y-77988585D01*
X101102090Y-78617157D01*
X101102090Y-77988585D02*
X101054471Y-77874300D01*
X100959233Y-77817157D01*
X100816376Y-77817157D01*
X100721138Y-77874300D01*
X100673519Y-77988585D01*
X100673519Y-78617157D01*
X100197328Y-78617157D02*
X100197328Y-77817157D01*
X100197328Y-77417157D02*
X100244947Y-77474300D01*
X100197328Y-77531442D01*
X100149709Y-77474300D01*
X100197328Y-77417157D01*
X100197328Y-77531442D01*
X99292566Y-78617157D02*
X99292566Y-77417157D01*
X99292566Y-78560014D02*
X99387804Y-78617157D01*
X99578280Y-78617157D01*
X99673519Y-78560014D01*
X99721138Y-78502871D01*
X99768757Y-78388585D01*
X99768757Y-78045728D01*
X99721138Y-77931442D01*
X99673519Y-77874300D01*
X99578280Y-77817157D01*
X99387804Y-77817157D01*
X99292566Y-77874300D01*
X98816376Y-78617157D02*
X98816376Y-77817157D01*
X98816376Y-77417157D02*
X98863995Y-77474300D01*
X98816376Y-77531442D01*
X98768757Y-77474300D01*
X98816376Y-77417157D01*
X98816376Y-77531442D01*
X98483042Y-77817157D02*
X98102090Y-77817157D01*
X98340185Y-77417157D02*
X98340185Y-78445728D01*
X98292566Y-78560014D01*
X98197328Y-78617157D01*
X98102090Y-78617157D01*
X97863995Y-77817157D02*
X97625900Y-78617157D01*
X97387804Y-77817157D02*
X97625900Y-78617157D01*
X97721138Y-78902871D01*
X97768757Y-78960014D01*
X97863995Y-79017157D01*
X109887804Y-80667157D02*
X109887804Y-80038585D01*
X109935423Y-79924300D01*
X110030661Y-79867157D01*
X110221138Y-79867157D01*
X110316376Y-79924300D01*
X109887804Y-80610014D02*
X109983042Y-80667157D01*
X110221138Y-80667157D01*
X110316376Y-80610014D01*
X110363995Y-80495728D01*
X110363995Y-80381442D01*
X110316376Y-80267157D01*
X110221138Y-80210014D01*
X109983042Y-80210014D01*
X109887804Y-80152871D01*
X109411614Y-79867157D02*
X109411614Y-80667157D01*
X109411614Y-79981442D02*
X109363995Y-79924300D01*
X109268757Y-79867157D01*
X109125900Y-79867157D01*
X109030661Y-79924300D01*
X108983042Y-80038585D01*
X108983042Y-80667157D01*
X108078280Y-80667157D02*
X108078280Y-79467157D01*
X108078280Y-80610014D02*
X108173519Y-80667157D01*
X108363995Y-80667157D01*
X108459233Y-80610014D01*
X108506852Y-80552871D01*
X108554471Y-80438585D01*
X108554471Y-80095728D01*
X108506852Y-79981442D01*
X108459233Y-79924300D01*
X108363995Y-79867157D01*
X108173519Y-79867157D01*
X108078280Y-79924300D01*
X106840185Y-79867157D02*
X106840185Y-81067157D01*
X106840185Y-79924300D02*
X106744947Y-79867157D01*
X106554471Y-79867157D01*
X106459233Y-79924300D01*
X106411614Y-79981442D01*
X106363995Y-80095728D01*
X106363995Y-80438585D01*
X106411614Y-80552871D01*
X106459233Y-80610014D01*
X106554471Y-80667157D01*
X106744947Y-80667157D01*
X106840185Y-80610014D01*
X105935423Y-80667157D02*
X105935423Y-79867157D01*
X105935423Y-80095728D02*
X105887804Y-79981442D01*
X105840185Y-79924300D01*
X105744947Y-79867157D01*
X105649709Y-79867157D01*
X104935423Y-80610014D02*
X105030661Y-80667157D01*
X105221138Y-80667157D01*
X105316376Y-80610014D01*
X105363995Y-80495728D01*
X105363995Y-80038585D01*
X105316376Y-79924300D01*
X105221138Y-79867157D01*
X105030661Y-79867157D01*
X104935423Y-79924300D01*
X104887804Y-80038585D01*
X104887804Y-80152871D01*
X105363995Y-80267157D01*
X104506852Y-80610014D02*
X104411614Y-80667157D01*
X104221138Y-80667157D01*
X104125900Y-80610014D01*
X104078280Y-80495728D01*
X104078280Y-80438585D01*
X104125900Y-80324300D01*
X104221138Y-80267157D01*
X104363995Y-80267157D01*
X104459233Y-80210014D01*
X104506852Y-80095728D01*
X104506852Y-80038585D01*
X104459233Y-79924300D01*
X104363995Y-79867157D01*
X104221138Y-79867157D01*
X104125900Y-79924300D01*
X103697328Y-80610014D02*
X103602090Y-80667157D01*
X103411614Y-80667157D01*
X103316376Y-80610014D01*
X103268757Y-80495728D01*
X103268757Y-80438585D01*
X103316376Y-80324300D01*
X103411614Y-80267157D01*
X103554471Y-80267157D01*
X103649709Y-80210014D01*
X103697328Y-80095728D01*
X103697328Y-80038585D01*
X103649709Y-79924300D01*
X103554471Y-79867157D01*
X103411614Y-79867157D01*
X103316376Y-79924300D01*
X102411614Y-79867157D02*
X102411614Y-80667157D01*
X102840185Y-79867157D02*
X102840185Y-80495728D01*
X102792566Y-80610014D01*
X102697328Y-80667157D01*
X102554471Y-80667157D01*
X102459233Y-80610014D01*
X102411614Y-80552871D01*
X101935423Y-80667157D02*
X101935423Y-79867157D01*
X101935423Y-80095728D02*
X101887804Y-79981442D01*
X101840185Y-79924300D01*
X101744947Y-79867157D01*
X101649709Y-79867157D01*
X100935423Y-80610014D02*
X101030661Y-80667157D01*
X101221138Y-80667157D01*
X101316376Y-80610014D01*
X101363995Y-80495728D01*
X101363995Y-80038585D01*
X101316376Y-79924300D01*
X101221138Y-79867157D01*
X101030661Y-79867157D01*
X100935423Y-79924300D01*
X100887804Y-80038585D01*
X100887804Y-80152871D01*
X101363995Y-80267157D01*
X107887804Y-82660014D02*
X107792566Y-82717157D01*
X107602090Y-82717157D01*
X107506852Y-82660014D01*
X107459233Y-82545728D01*
X107459233Y-82488585D01*
X107506852Y-82374300D01*
X107602090Y-82317157D01*
X107744947Y-82317157D01*
X107840185Y-82260014D01*
X107887804Y-82145728D01*
X107887804Y-82088585D01*
X107840185Y-81974300D01*
X107744947Y-81917157D01*
X107602090Y-81917157D01*
X107506852Y-81974300D01*
X106649709Y-82660014D02*
X106744947Y-82717157D01*
X106935423Y-82717157D01*
X107030661Y-82660014D01*
X107078280Y-82545728D01*
X107078280Y-82088585D01*
X107030661Y-81974300D01*
X106935423Y-81917157D01*
X106744947Y-81917157D01*
X106649709Y-81974300D01*
X106602090Y-82088585D01*
X106602090Y-82202871D01*
X107078280Y-82317157D01*
X106173519Y-81917157D02*
X106173519Y-82717157D01*
X106173519Y-82031442D02*
X106125900Y-81974300D01*
X106030661Y-81917157D01*
X105887804Y-81917157D01*
X105792566Y-81974300D01*
X105744947Y-82088585D01*
X105744947Y-82717157D01*
X105316376Y-82660014D02*
X105221138Y-82717157D01*
X105030661Y-82717157D01*
X104935423Y-82660014D01*
X104887804Y-82545728D01*
X104887804Y-82488585D01*
X104935423Y-82374300D01*
X105030661Y-82317157D01*
X105173519Y-82317157D01*
X105268757Y-82260014D01*
X105316376Y-82145728D01*
X105316376Y-82088585D01*
X105268757Y-81974300D01*
X105173519Y-81917157D01*
X105030661Y-81917157D01*
X104935423Y-81974300D01*
X104316376Y-82717157D02*
X104411614Y-82660014D01*
X104459233Y-82602871D01*
X104506852Y-82488585D01*
X104506852Y-82145728D01*
X104459233Y-82031442D01*
X104411614Y-81974300D01*
X104316376Y-81917157D01*
X104173519Y-81917157D01*
X104078280Y-81974300D01*
X104030661Y-82031442D01*
X103983042Y-82145728D01*
X103983042Y-82488585D01*
X104030661Y-82602871D01*
X104078280Y-82660014D01*
X104173519Y-82717157D01*
X104316376Y-82717157D01*
X103554471Y-82717157D02*
X103554471Y-81917157D01*
X103554471Y-82145728D02*
X103506852Y-82031442D01*
X103459233Y-81974300D01*
X103363995Y-81917157D01*
X103268757Y-81917157D01*
D12*
X113044157Y-75659371D02*
X113044157Y-74159371D01*
X112544157Y-75230800D01*
X112044157Y-74159371D01*
X112044157Y-75659371D01*
X111044157Y-74159371D02*
X110758442Y-74159371D01*
X110615585Y-74230800D01*
X110472728Y-74373657D01*
X110401300Y-74659371D01*
X110401300Y-75159371D01*
X110472728Y-75445085D01*
X110615585Y-75587942D01*
X110758442Y-75659371D01*
X111044157Y-75659371D01*
X111187014Y-75587942D01*
X111329871Y-75445085D01*
X111401300Y-75159371D01*
X111401300Y-74659371D01*
X111329871Y-74373657D01*
X111187014Y-74230800D01*
X111044157Y-74159371D01*
X109758442Y-75659371D02*
X109758442Y-74159371D01*
X109401300Y-74159371D01*
X109187014Y-74230800D01*
X109044157Y-74373657D01*
X108972728Y-74516514D01*
X108901300Y-74802228D01*
X108901300Y-75016514D01*
X108972728Y-75302228D01*
X109044157Y-75445085D01*
X109187014Y-75587942D01*
X109401300Y-75659371D01*
X109758442Y-75659371D01*
X108258442Y-75087942D02*
X107115585Y-75087942D01*
X105901300Y-74873657D02*
X105687014Y-74945085D01*
X105615585Y-75016514D01*
X105544157Y-75159371D01*
X105544157Y-75373657D01*
X105615585Y-75516514D01*
X105687014Y-75587942D01*
X105829871Y-75659371D01*
X106401300Y-75659371D01*
X106401300Y-74159371D01*
X105901300Y-74159371D01*
X105758442Y-74230800D01*
X105687014Y-74302228D01*
X105615585Y-74445085D01*
X105615585Y-74587942D01*
X105687014Y-74730800D01*
X105758442Y-74802228D01*
X105901300Y-74873657D01*
X106401300Y-74873657D01*
X104901300Y-75659371D02*
X104901300Y-74159371D01*
X104401300Y-75230800D01*
X103901300Y-74159371D01*
X103901300Y-75659371D01*
X103187014Y-74873657D02*
X102687014Y-74873657D01*
X102472728Y-75659371D02*
X103187014Y-75659371D01*
X103187014Y-74159371D01*
X102472728Y-74159371D01*
X101901300Y-74302228D02*
X101829871Y-74230800D01*
X101687014Y-74159371D01*
X101329871Y-74159371D01*
X101187014Y-74230800D01*
X101115585Y-74302228D01*
X101044157Y-74445085D01*
X101044157Y-74587942D01*
X101115585Y-74802228D01*
X101972728Y-75659371D01*
X101044157Y-75659371D01*
X100187014Y-74802228D02*
X100329871Y-74730800D01*
X100401300Y-74659371D01*
X100472728Y-74516514D01*
X100472728Y-74445085D01*
X100401300Y-74302228D01*
X100329871Y-74230800D01*
X100187014Y-74159371D01*
X99901300Y-74159371D01*
X99758442Y-74230800D01*
X99687014Y-74302228D01*
X99615585Y-74445085D01*
X99615585Y-74516514D01*
X99687014Y-74659371D01*
X99758442Y-74730800D01*
X99901300Y-74802228D01*
X100187014Y-74802228D01*
X100329871Y-74873657D01*
X100401300Y-74945085D01*
X100472728Y-75087942D01*
X100472728Y-75373657D01*
X100401300Y-75516514D01*
X100329871Y-75587942D01*
X100187014Y-75659371D01*
X99901300Y-75659371D01*
X99758442Y-75587942D01*
X99687014Y-75516514D01*
X99615585Y-75373657D01*
X99615585Y-75087942D01*
X99687014Y-74945085D01*
X99758442Y-74873657D01*
X99901300Y-74802228D01*
X98687014Y-74159371D02*
X98544157Y-74159371D01*
X98401300Y-74230800D01*
X98329871Y-74302228D01*
X98258442Y-74445085D01*
X98187014Y-74730800D01*
X98187014Y-75087942D01*
X98258442Y-75373657D01*
X98329871Y-75516514D01*
X98401300Y-75587942D01*
X98544157Y-75659371D01*
X98687014Y-75659371D01*
X98829871Y-75587942D01*
X98901300Y-75516514D01*
X98972728Y-75373657D01*
X99044157Y-75087942D01*
X99044157Y-74730800D01*
X98972728Y-74445085D01*
X98901300Y-74302228D01*
X98829871Y-74230800D01*
X98687014Y-74159371D01*
D13*
X113735747Y-69723000D02*
G75*
G03X113735747Y-69723000I-337447J0D01*
G01*
D14*
X113411000Y-68948300D02*
X112903000Y-68440300D01*
X111810800Y-68364100D02*
X111175800Y-68973700D01*
X111201200Y-70929500D02*
X111760000Y-71513700D01*
X109575600Y-71526400D02*
X110032800Y-71069200D01*
X108589800Y-71526400D02*
X109575600Y-71526400D01*
D13*
X108443324Y-71501000D02*
G75*
G03X108443324Y-71501000I-366324J0D01*
G01*
D14*
X108077000Y-68808600D02*
X108077000Y-70408800D01*
D13*
X108437818Y-68275200D02*
G75*
G03X108437818Y-68275200I-373518J0D01*
G01*
X107204759Y-71475600D02*
G75*
G03X107204759Y-71475600I-359659J0D01*
G01*
D14*
X106857800Y-70967600D02*
X106857800Y-68376800D01*
X106857800Y-68376800D02*
X106019600Y-68376800D01*
X106019600Y-68376800D02*
X105410000Y-68884800D01*
X105308400Y-69672200D02*
X105308400Y-68961000D01*
X105232200Y-68884800D02*
X104597200Y-68376800D01*
D13*
X105679318Y-70205600D02*
G75*
G03X105679318Y-70205600I-370918J0D01*
G01*
D14*
X104597200Y-68376800D02*
X103708200Y-68376800D01*
D13*
X104058729Y-71488300D02*
G75*
G03X104058729Y-71488300I-363229J0D01*
G01*
X98195666Y-71577200D02*
G75*
G03X98195666Y-71577200I-329466J0D01*
G01*
D14*
X98196400Y-71221600D02*
X99034600Y-70408800D01*
D15*
X99542600Y-70307200D02*
X99009200Y-70307200D01*
D14*
X100685600Y-71526400D02*
X99542600Y-70408800D01*
X102006400Y-71526400D02*
X100685600Y-71526400D01*
X102438200Y-71094600D02*
X102006400Y-71526400D01*
X102438200Y-68859400D02*
X102438200Y-71094600D01*
X102438200Y-68834000D02*
X101955600Y-68326000D01*
X101907500Y-68351400D02*
X100685600Y-68351400D01*
X100685600Y-68351400D02*
X99593400Y-69418200D01*
D15*
X99568000Y-69532500D02*
X99009200Y-69532500D01*
D14*
X98145600Y-68541900D02*
X99009200Y-69435600D01*
D13*
X98136735Y-68186300D02*
G75*
G03X98136735Y-68186300I-359435J0D01*
G01*
D14*
X101219000Y-69926200D02*
X102438200Y-69926200D01*
D13*
X101070659Y-69926200D02*
G75*
G03X101070659Y-69926200I-359659J0D01*
G01*
D14*
X112839500Y-71539100D02*
X111798100Y-71539100D01*
X113398300Y-70980300D02*
X113398300Y-70218300D01*
X113411000Y-70967600D02*
X112826800Y-71539100D01*
X113411000Y-68999100D02*
X113411000Y-69240400D01*
X111188500Y-68961000D02*
X111188500Y-70891400D01*
X111810800Y-68351400D02*
X112814100Y-68351400D01*
X103695500Y-68364100D02*
X103695500Y-70967600D01*
X110032800Y-71081900D02*
X110032800Y-68351400D01*
D16*
X110032800Y-68008500D02*
X110312200Y-68008500D01*
X110337600Y-68008500D02*
X110337600Y-71158100D01*
X110324900Y-68008500D02*
X110337600Y-68008500D01*
X110312200Y-68008500D02*
X110324900Y-68008500D01*
X110197900Y-68097400D02*
X110261400Y-68084700D01*
X109715300Y-68008500D02*
X109715300Y-71043800D01*
X110020100Y-68008500D02*
X109715300Y-68008500D01*
X109893100Y-68084700D02*
X109778800Y-68084700D01*
X108394500Y-68694300D02*
X108394500Y-70713600D01*
X107759500Y-70713600D02*
X107759500Y-68694300D01*
X107784900Y-70713600D02*
X107759500Y-70713600D01*
X108394500Y-70713600D02*
X107784900Y-70713600D01*
X108254800Y-70650100D02*
X108318300Y-70650100D01*
X107911900Y-70650100D02*
X107823000Y-70650100D01*
X107175300Y-71056500D02*
X107175300Y-68072000D01*
X105930700Y-68059300D02*
X105346500Y-68541900D01*
X107175300Y-68059300D02*
X105930700Y-68059300D01*
X107022900Y-68122800D02*
X107099100Y-68122800D01*
X103365300Y-71081900D02*
X103365300Y-68072000D01*
X104686100Y-68059300D02*
X105308400Y-68554600D01*
X104660700Y-68059300D02*
X104686100Y-68059300D01*
X103365300Y-68059300D02*
X104660700Y-68059300D01*
X103365300Y-68072000D02*
X103365300Y-68059300D01*
X103517700Y-68135500D02*
X103416100Y-68135500D01*
X100571300Y-68021200D02*
X99314000Y-69265800D01*
X100622100Y-68021200D02*
X100571300Y-68021200D01*
X101993700Y-68021200D02*
X100622100Y-68021200D01*
M02*
